solid OpenSCAD_Model
  facet normal -1 0 0
    outer loop
      vertex 0 30 0
      vertex 0 12 12
      vertex 0 30 12
    endloop
  endfacet
  facet normal -1 0 0
    outer loop
      vertex 0 12 12
      vertex 0 1.83697e-15 30
      vertex 0 12 30
    endloop
  endfacet
  facet normal -1 0 0
    outer loop
      vertex 0 12 12
      vertex 0 7.34788e-16 12
      vertex 0 1.83697e-15 30
    endloop
  endfacet
  facet normal -1 0 0
    outer loop
      vertex 0 0 0
      vertex 0 12 12
      vertex 0 30 0
    endloop
  endfacet
  facet normal -1 -0 0
    outer loop
      vertex 0 12 12
      vertex 0 0 0
      vertex 0 7.34788e-16 12
    endloop
  endfacet
  facet normal -1 -0 0
    outer loop
      vertex 0 7.34788e-16 12
      vertex 0 0 0
      vertex 0 0 12
    endloop
  endfacet
  facet normal -0 0 1
    outer loop
      vertex 12 12 12
      vertex 30 1.83697e-15 12
      vertex 30 12 12
    endloop
  endfacet
  facet normal 0 0 1
    outer loop
      vertex 30 1.83697e-15 12
      vertex 12 12 12
      vertex 12 7.34788e-16 12
    endloop
  endfacet
  facet normal -0 0 1
    outer loop
      vertex 0 7.34788e-16 12
      vertex 12 0 12
      vertex 12 7.34788e-16 12
    endloop
  endfacet
  facet normal 0 0 1
    outer loop
      vertex 12 0 12
      vertex 0 7.34788e-16 12
      vertex 0 0 12
    endloop
  endfacet
  facet normal -0 0 1
    outer loop
      vertex 0 30 12
      vertex 12 12 12
      vertex 12 30 12
    endloop
  endfacet
  facet normal 0 0 1
    outer loop
      vertex 12 12 12
      vertex 0 30 12
      vertex 0 12 12
    endloop
  endfacet
  facet normal -0 0 1
    outer loop
      vertex 1 11 12
      vertex 11 1 12
      vertex 11 11 12
    endloop
  endfacet
  facet normal 0 0 1
    outer loop
      vertex 11 1 12
      vertex 1 11 12
      vertex 1 1 12
    endloop
  endfacet
  facet normal 1 -0 0
    outer loop
      vertex 12 1.83697e-15 30
      vertex 12 12 12
      vertex 12 12 30
    endloop
  endfacet
  facet normal 1 0 0
    outer loop
      vertex 12 12 12
      vertex 12 1.83697e-15 30
      vertex 12 7.34788e-16 12
    endloop
  endfacet
  facet normal 1 -0 0
    outer loop
      vertex 12 0 12
      vertex 12 7.34788e-16 0
      vertex 12 7.34788e-16 12
    endloop
  endfacet
  facet normal 1 0 0
    outer loop
      vertex 12 7.34788e-16 0
      vertex 12 0 12
      vertex 12 0 0
    endloop
  endfacet
  facet normal 1 -0 0
    outer loop
      vertex 12 12 12
      vertex 12 30 0
      vertex 12 30 12
    endloop
  endfacet
  facet normal 1 0 0
    outer loop
      vertex 12 30 0
      vertex 12 12 12
      vertex 12 12 0
    endloop
  endfacet
  facet normal 1 -0 0
    outer loop
      vertex 12 1 11
      vertex 12 11 1
      vertex 12 11 11
    endloop
  endfacet
  facet normal 1 0 0
    outer loop
      vertex 12 11 1
      vertex 12 1 11
      vertex 12 1 1
    endloop
  endfacet
  facet normal 0 1 0
    outer loop
      vertex 12 30 12
      vertex 11 30 11
      vertex 0 30 12
    endloop
  endfacet
  facet normal 0 1 0
    outer loop
      vertex 12 30 12
      vertex 11 30 1
      vertex 11 30 11
    endloop
  endfacet
  facet normal 0 1 0
    outer loop
      vertex 11 30 1
      vertex 12 30 0
      vertex 1 30 1
    endloop
  endfacet
  facet normal 0 1 -0
    outer loop
      vertex 12 30 0
      vertex 11 30 1
      vertex 12 30 12
    endloop
  endfacet
  facet normal 0 1 -0
    outer loop
      vertex 1 30 11
      vertex 0 30 12
      vertex 11 30 11
    endloop
  endfacet
  facet normal 0 1 -0
    outer loop
      vertex 1 30 1
      vertex 0 30 12
      vertex 1 30 11
    endloop
  endfacet
  facet normal 0 1 0
    outer loop
      vertex 1 30 1
      vertex 0 30 0
      vertex 0 30 12
    endloop
  endfacet
  facet normal 0 1 0
    outer loop
      vertex 0 30 0
      vertex 1 30 1
      vertex 12 30 0
    endloop
  endfacet
  facet normal 0 0 -1
    outer loop
      vertex 0 0 0
      vertex 12 7.34788e-16 0
      vertex 12 0 0
    endloop
  endfacet
  facet normal -0 0 -1
    outer loop
      vertex 12 7.34788e-16 0
      vertex 0 0 0
      vertex 12 12 0
    endloop
  endfacet
  facet normal 0 0 -1
    outer loop
      vertex 0 30 0
      vertex 12 12 0
      vertex 0 0 0
    endloop
  endfacet
  facet normal 0 0 -1
    outer loop
      vertex 12 12 0
      vertex 0 30 0
      vertex 12 30 0
    endloop
  endfacet
  facet normal 0 0 -1
    outer loop
      vertex 12 7.34788e-16 0
      vertex 30 12 0
      vertex 30 1.83697e-15 0
    endloop
  endfacet
  facet normal -0 0 -1
    outer loop
      vertex 30 12 0
      vertex 12 7.34788e-16 0
      vertex 12 12 0
    endloop
  endfacet
  facet normal 0 -1 0
    outer loop
      vertex 0 0 0
      vertex 12 0 12
      vertex 0 0 12
    endloop
  endfacet
  facet normal 0 -1 -0
    outer loop
      vertex 12 0 12
      vertex 0 0 0
      vertex 12 0 0
    endloop
  endfacet
  facet normal 1 -0 0
    outer loop
      vertex 1 1 30
      vertex 1 11 12
      vertex 1 11 30
    endloop
  endfacet
  facet normal 1 0 0
    outer loop
      vertex 1 11 12
      vertex 1 1 30
      vertex 1 1 12
    endloop
  endfacet
  facet normal 1 -0 0
    outer loop
      vertex 1 12 11
      vertex 1 30 1
      vertex 1 30 11
    endloop
  endfacet
  facet normal 1 0 0
    outer loop
      vertex 1 30 1
      vertex 1 12 11
      vertex 1 12 1
    endloop
  endfacet
  facet normal 0 0 -1
    outer loop
      vertex 10 10 11
      vertex 11 11 11
      vertex 11 10 11
    endloop
  endfacet
  facet normal -0 0 -1
    outer loop
      vertex 11 11 11
      vertex 10 10 11
      vertex 10 11 11
    endloop
  endfacet
  facet normal 0 0 -1
    outer loop
      vertex 12 1 11
      vertex 30 11 11
      vertex 30 1 11
    endloop
  endfacet
  facet normal -0 0 -1
    outer loop
      vertex 30 11 11
      vertex 12 1 11
      vertex 12 11 11
    endloop
  endfacet
  facet normal 0 0 -1
    outer loop
      vertex 1 12 11
      vertex 11 30 11
      vertex 11 12 11
    endloop
  endfacet
  facet normal -0 0 -1
    outer loop
      vertex 11 30 11
      vertex 1 12 11
      vertex 1 30 11
    endloop
  endfacet
  facet normal -1 0 0
    outer loop
      vertex 11 10 10
      vertex 11 11 11
      vertex 11 11 10
    endloop
  endfacet
  facet normal -1 -0 0
    outer loop
      vertex 11 11 11
      vertex 11 10 10
      vertex 11 10 11
    endloop
  endfacet
  facet normal -1 0 0
    outer loop
      vertex 11 1 12
      vertex 11 11 30
      vertex 11 11 12
    endloop
  endfacet
  facet normal -1 -0 0
    outer loop
      vertex 11 11 30
      vertex 11 1 12
      vertex 11 1 30
    endloop
  endfacet
  facet normal -1 0 0
    outer loop
      vertex 11 12 1
      vertex 11 30 11
      vertex 11 30 1
    endloop
  endfacet
  facet normal -1 -0 0
    outer loop
      vertex 11 30 11
      vertex 11 12 1
      vertex 11 12 11
    endloop
  endfacet
  facet normal -0 0 1
    outer loop
      vertex 1 30 1
      vertex 11 12 1
      vertex 11 30 1
    endloop
  endfacet
  facet normal 0 0 1
    outer loop
      vertex 11 12 1
      vertex 1 30 1
      vertex 1 12 1
    endloop
  endfacet
  facet normal 0 1 -0
    outer loop
      vertex 11 10 10
      vertex 10 10 11
      vertex 11 10 11
    endloop
  endfacet
  facet normal 0 1 0
    outer loop
      vertex 10 10 11
      vertex 11 10 10
      vertex 10 10 10
    endloop
  endfacet
  facet normal 0 -1 6.12323e-17
    outer loop
      vertex 0 7.34788e-16 12
      vertex 12 1.83697e-15 30
      vertex 0 1.83697e-15 30
    endloop
  endfacet
  facet normal 0 -1 6.12323e-17
    outer loop
      vertex 12 1.83697e-15 30
      vertex 0 7.34788e-16 12
      vertex 12 7.34788e-16 12
    endloop
  endfacet
  facet normal 0 0 1
    outer loop
      vertex 12 12 30
      vertex 11 11 30
      vertex 12 1.83697e-15 30
    endloop
  endfacet
  facet normal 0 0 1
    outer loop
      vertex 12 12 30
      vertex 1 11 30
      vertex 11 11 30
    endloop
  endfacet
  facet normal 0 0 1
    outer loop
      vertex 1 11 30
      vertex 0 12 30
      vertex 1 1 30
    endloop
  endfacet
  facet normal -0 0 1
    outer loop
      vertex 0 12 30
      vertex 1 11 30
      vertex 12 12 30
    endloop
  endfacet
  facet normal -0 0 1
    outer loop
      vertex 11 1 30
      vertex 12 1.83697e-15 30
      vertex 11 11 30
    endloop
  endfacet
  facet normal -0 0 1
    outer loop
      vertex 1 1 30
      vertex 12 1.83697e-15 30
      vertex 11 1 30
    endloop
  endfacet
  facet normal 0 0 1
    outer loop
      vertex 1 1 30
      vertex 0 1.83697e-15 30
      vertex 12 1.83697e-15 30
    endloop
  endfacet
  facet normal 0 0 1
    outer loop
      vertex 0 1.83697e-15 30
      vertex 1 1 30
      vertex 0 12 30
    endloop
  endfacet
  facet normal 0 1 -0
    outer loop
      vertex 12 12 12
      vertex 0 12 30
      vertex 12 12 30
    endloop
  endfacet
  facet normal 0 1 0
    outer loop
      vertex 0 12 30
      vertex 12 12 12
      vertex 0 12 12
    endloop
  endfacet
  facet normal 0 1 0
    outer loop
      vertex 11 12 11
      vertex 1 12 1
      vertex 1 12 11
    endloop
  endfacet
  facet normal 0 1 -0
    outer loop
      vertex 11 1 12
      vertex 1 1 30
      vertex 11 1 30
    endloop
  endfacet
  facet normal 0 1 0
    outer loop
      vertex 1 1 30
      vertex 11 1 12
      vertex 1 1 12
    endloop
  endfacet
  facet normal 0 -1 0
    outer loop
      vertex 11 11 10
      vertex 11 11 11
      vertex 10 11 10
    endloop
  endfacet
  facet normal 0 -1 0
    outer loop
      vertex 1 11 12
      vertex 11 11 30
      vertex 1 11 30
    endloop
  endfacet
  facet normal 0 -1 -0
    outer loop
      vertex 11 11 30
      vertex 1 11 12
      vertex 11 11 12
    endloop
  endfacet
  facet normal -0 0 1
    outer loop
      vertex 10 11 10
      vertex 11 10 10
      vertex 11 11 10
    endloop
  endfacet
  facet normal 0 0 1
    outer loop
      vertex 11 10 10
      vertex 10 11 10
      vertex 10 10 10
    endloop
  endfacet
  facet normal 0 1 -0
    outer loop
      vertex 30 12 0
      vertex 12 12 12
      vertex 30 12 12
    endloop
  endfacet
  facet normal 0 1 0
    outer loop
      vertex 12 12 12
      vertex 30 12 0
      vertex 12 12 0
    endloop
  endfacet
  facet normal 0 1 -0
    outer loop
      vertex 11 12 1
      vertex 1 12 1
      vertex 11 12 11
    endloop
  endfacet
  facet normal 6.12323e-17 -1 0
    outer loop
      vertex 12 7.34788e-16 0
      vertex 30 1.83697e-15 12
      vertex 12 7.34788e-16 12
    endloop
  endfacet
  facet normal 6.12323e-17 -1 0
    outer loop
      vertex 30 1.83697e-15 12
      vertex 12 7.34788e-16 0
      vertex 30 1.83697e-15 0
    endloop
  endfacet
  facet normal 1 0 0
    outer loop
      vertex 30 12 12
      vertex 30 11 11
      vertex 30 12 0
    endloop
  endfacet
  facet normal 1 0 0
    outer loop
      vertex 30 12 12
      vertex 30 1 11
      vertex 30 11 11
    endloop
  endfacet
  facet normal 1 0 0
    outer loop
      vertex 30 1 11
      vertex 30 1.83697e-15 12
      vertex 30 1 1
    endloop
  endfacet
  facet normal 1 -0 0
    outer loop
      vertex 30 1.83697e-15 12
      vertex 30 1 11
      vertex 30 12 12
    endloop
  endfacet
  facet normal 1 -0 0
    outer loop
      vertex 30 11 1
      vertex 30 12 0
      vertex 30 11 11
    endloop
  endfacet
  facet normal 1 -0 0
    outer loop
      vertex 30 1 1
      vertex 30 12 0
      vertex 30 11 1
    endloop
  endfacet
  facet normal 1 0 0
    outer loop
      vertex 30 1 1
      vertex 30 1.83697e-15 0
      vertex 30 12 0
    endloop
  endfacet
  facet normal 1 0 0
    outer loop
      vertex 30 1.83697e-15 0
      vertex 30 1 1
      vertex 30 1.83697e-15 12
    endloop
  endfacet
  facet normal -0 -1 0
    outer loop
      vertex 11 11 11
      vertex 10 11 11
      vertex 10 11 10
    endloop
  endfacet
  facet normal 0 -1 0
    outer loop
      vertex 12 11 1
      vertex 30 11 11
      vertex 12 11 11
    endloop
  endfacet
  facet normal 0 -1 -0
    outer loop
      vertex 30 11 11
      vertex 12 11 1
      vertex 30 11 1
    endloop
  endfacet
  facet normal 0 1 -0
    outer loop
      vertex 30 1 1
      vertex 12 1 11
      vertex 30 1 11
    endloop
  endfacet
  facet normal 0 1 0
    outer loop
      vertex 12 1 11
      vertex 30 1 1
      vertex 12 1 1
    endloop
  endfacet
  facet normal -0 0 1
    outer loop
      vertex 12 11 1
      vertex 30 1 1
      vertex 30 11 1
    endloop
  endfacet
  facet normal 0 0 1
    outer loop
      vertex 30 1 1
      vertex 12 11 1
      vertex 12 1 1
    endloop
  endfacet
  facet normal 1 -0 0
    outer loop
      vertex 10 10 11
      vertex 10 11 10
      vertex 10 11 11
    endloop
  endfacet
  facet normal 1 0 0
    outer loop
      vertex 10 11 10
      vertex 10 10 11
      vertex 10 10 10
    endloop
  endfacet
endsolid OpenSCAD_Model
