solid OpenSCAD_Model
  facet normal -1 0 0
    outer loop
      vertex 0 30.9 0
      vertex 0 13.3 13.3
      vertex 0 30.9 13.3
    endloop
  endfacet
  facet normal -1 0 0
    outer loop
      vertex 0 13.3 13.3
      vertex 0 7.62939e-07 13.3
      vertex 0 13.3 30.9
    endloop
  endfacet
  facet normal -1 0 0
    outer loop
      vertex 0 0 0
      vertex 0 13.3 13.3
      vertex 0 30.9 0
    endloop
  endfacet
  facet normal -1 -0 0
    outer loop
      vertex 0 13.3 13.3
      vertex 0 0 0
      vertex 0 7.62939e-07 13.3
    endloop
  endfacet
  facet normal -1 -0 0
    outer loop
      vertex 0 7.62939e-07 13.3
      vertex 0 0 0
      vertex 0 0 13.3
    endloop
  endfacet
  facet normal -1 -0 0
    outer loop
      vertex 0 13.3 30.9
      vertex 0 7.62939e-07 13.3
      vertex 0 7.62939e-07 30.9
    endloop
  endfacet
  facet normal -0 0 1
    outer loop
      vertex 13.3 13.3 13.3
      vertex 30.9 7.62939e-07 13.3
      vertex 30.9 13.3 13.3
    endloop
  endfacet
  facet normal 0 0 1
    outer loop
      vertex 30.9 7.62939e-07 13.3
      vertex 13.3 13.3 13.3
      vertex 13.3 7.62939e-07 13.3
    endloop
  endfacet
  facet normal -0 0 1
    outer loop
      vertex 0 7.62939e-07 13.3
      vertex 13.3 0 13.3
      vertex 13.3 7.62939e-07 13.3
    endloop
  endfacet
  facet normal 0 0 1
    outer loop
      vertex 13.3 0 13.3
      vertex 0 7.62939e-07 13.3
      vertex 0 0 13.3
    endloop
  endfacet
  facet normal -0 0 1
    outer loop
      vertex 0 30.9 13.3
      vertex 13.3 13.3 13.3
      vertex 13.3 30.9 13.3
    endloop
  endfacet
  facet normal 0 0 1
    outer loop
      vertex 13.3 13.3 13.3
      vertex 0 30.9 13.3
      vertex 0 13.3 13.3
    endloop
  endfacet
  facet normal -0 0 1
    outer loop
      vertex 1.5 11.8 13.3
      vertex 11.8 1.5 13.3
      vertex 11.8 11.8 13.3
    endloop
  endfacet
  facet normal 0 0 1
    outer loop
      vertex 11.8 1.5 13.3
      vertex 1.5 11.8 13.3
      vertex 1.5 1.5 13.3
    endloop
  endfacet
  facet normal 1 -0 0
    outer loop
      vertex 13.3 7.62939e-07 30.9
      vertex 13.3 13.3 13.3
      vertex 13.3 13.3 30.9
    endloop
  endfacet
  facet normal 1 0 0
    outer loop
      vertex 13.3 13.3 13.3
      vertex 13.3 7.62939e-07 30.9
      vertex 13.3 7.62939e-07 13.3
    endloop
  endfacet
  facet normal 1 -0 0
    outer loop
      vertex 13.3 0 13.3
      vertex 13.3 7.62939e-07 0
      vertex 13.3 7.62939e-07 13.3
    endloop
  endfacet
  facet normal 1 0 0
    outer loop
      vertex 13.3 7.62939e-07 0
      vertex 13.3 0 13.3
      vertex 13.3 0 0
    endloop
  endfacet
  facet normal 1 -0 0
    outer loop
      vertex 13.3 13.3 13.3
      vertex 13.3 30.9 0
      vertex 13.3 30.9 13.3
    endloop
  endfacet
  facet normal 1 0 0
    outer loop
      vertex 13.3 30.9 0
      vertex 13.3 13.3 13.3
      vertex 13.3 13.3 0
    endloop
  endfacet
  facet normal 1 -0 0
    outer loop
      vertex 13.3 1.5 11.8
      vertex 13.3 11.8 1.5
      vertex 13.3 11.8 11.8
    endloop
  endfacet
  facet normal 1 0 0
    outer loop
      vertex 13.3 11.8 1.5
      vertex 13.3 1.5 11.8
      vertex 13.3 1.5 1.5
    endloop
  endfacet
  facet normal 0 1 0
    outer loop
      vertex 13.3 30.9 13.3
      vertex 11.8 30.9 11.8
      vertex 0 30.9 13.3
    endloop
  endfacet
  facet normal 0 1 0
    outer loop
      vertex 13.3 30.9 13.3
      vertex 11.8 30.9 1.5
      vertex 11.8 30.9 11.8
    endloop
  endfacet
  facet normal 0 1 0
    outer loop
      vertex 11.8 30.9 1.5
      vertex 13.3 30.9 0
      vertex 1.5 30.9 1.5
    endloop
  endfacet
  facet normal 0 1 -0
    outer loop
      vertex 13.3 30.9 0
      vertex 11.8 30.9 1.5
      vertex 13.3 30.9 13.3
    endloop
  endfacet
  facet normal 0 1 -0
    outer loop
      vertex 1.5 30.9 11.8
      vertex 0 30.9 13.3
      vertex 11.8 30.9 11.8
    endloop
  endfacet
  facet normal 0 1 -0
    outer loop
      vertex 1.5 30.9 1.5
      vertex 0 30.9 13.3
      vertex 1.5 30.9 11.8
    endloop
  endfacet
  facet normal 0 1 0
    outer loop
      vertex 1.5 30.9 1.5
      vertex 0 30.9 0
      vertex 0 30.9 13.3
    endloop
  endfacet
  facet normal 0 1 0
    outer loop
      vertex 0 30.9 0
      vertex 1.5 30.9 1.5
      vertex 13.3 30.9 0
    endloop
  endfacet
  facet normal 0 0 -1
    outer loop
      vertex 0 0 0
      vertex 13.3 7.62939e-07 0
      vertex 13.3 0 0
    endloop
  endfacet
  facet normal -0 0 -1
    outer loop
      vertex 13.3 7.62939e-07 0
      vertex 0 0 0
      vertex 13.3 13.3 0
    endloop
  endfacet
  facet normal 0 0 -1
    outer loop
      vertex 0 30.9 0
      vertex 13.3 13.3 0
      vertex 0 0 0
    endloop
  endfacet
  facet normal 0 0 -1
    outer loop
      vertex 13.3 13.3 0
      vertex 0 30.9 0
      vertex 13.3 30.9 0
    endloop
  endfacet
  facet normal 0 0 -1
    outer loop
      vertex 13.3 7.62939e-07 0
      vertex 30.9 13.3 0
      vertex 30.9 7.62939e-07 0
    endloop
  endfacet
  facet normal -0 0 -1
    outer loop
      vertex 30.9 13.3 0
      vertex 13.3 7.62939e-07 0
      vertex 13.3 13.3 0
    endloop
  endfacet
  facet normal 0 -1 0
    outer loop
      vertex 0 0 0
      vertex 13.3 0 13.3
      vertex 0 0 13.3
    endloop
  endfacet
  facet normal 0 -1 -0
    outer loop
      vertex 13.3 0 13.3
      vertex 0 0 0
      vertex 13.3 0 0
    endloop
  endfacet
  facet normal 1 -0 0
    outer loop
      vertex 1.5 1.5 30.9
      vertex 1.5 11.8 13.3
      vertex 1.5 11.8 30.9
    endloop
  endfacet
  facet normal 1 0 0
    outer loop
      vertex 1.5 11.8 13.3
      vertex 1.5 1.5 30.9
      vertex 1.5 1.5 13.3
    endloop
  endfacet
  facet normal 1 -0 0
    outer loop
      vertex 1.5 13.3 11.8
      vertex 1.5 30.9 1.5
      vertex 1.5 30.9 11.8
    endloop
  endfacet
  facet normal 1 0 0
    outer loop
      vertex 1.5 30.9 1.5
      vertex 1.5 13.3 11.8
      vertex 1.5 13.3 1.5
    endloop
  endfacet
  facet normal 0 0 -1
    outer loop
      vertex 10.3 10.3 11.8
      vertex 11.8 11.8 11.8
      vertex 11.8 10.3 11.8
    endloop
  endfacet
  facet normal -0 0 -1
    outer loop
      vertex 11.8 11.8 11.8
      vertex 10.3 10.3 11.8
      vertex 10.3 11.8 11.8
    endloop
  endfacet
  facet normal 0 0 -1
    outer loop
      vertex 13.3 1.5 11.8
      vertex 30.9 11.8 11.8
      vertex 30.9 1.5 11.8
    endloop
  endfacet
  facet normal -0 0 -1
    outer loop
      vertex 30.9 11.8 11.8
      vertex 13.3 1.5 11.8
      vertex 13.3 11.8 11.8
    endloop
  endfacet
  facet normal 0 0 -1
    outer loop
      vertex 1.5 13.3 11.8
      vertex 11.8 30.9 11.8
      vertex 11.8 13.3 11.8
    endloop
  endfacet
  facet normal -0 0 -1
    outer loop
      vertex 11.8 30.9 11.8
      vertex 1.5 13.3 11.8
      vertex 1.5 30.9 11.8
    endloop
  endfacet
  facet normal -1 0 0
    outer loop
      vertex 11.8 10.3 10.3
      vertex 11.8 11.8 11.8
      vertex 11.8 11.8 10.3
    endloop
  endfacet
  facet normal -1 -0 0
    outer loop
      vertex 11.8 11.8 11.8
      vertex 11.8 10.3 10.3
      vertex 11.8 10.3 11.8
    endloop
  endfacet
  facet normal -1 0 0
    outer loop
      vertex 11.8 1.5 13.3
      vertex 11.8 11.8 30.9
      vertex 11.8 11.8 13.3
    endloop
  endfacet
  facet normal -1 -0 0
    outer loop
      vertex 11.8 11.8 30.9
      vertex 11.8 1.5 13.3
      vertex 11.8 1.5 30.9
    endloop
  endfacet
  facet normal -1 0 0
    outer loop
      vertex 11.8 13.3 1.5
      vertex 11.8 30.9 11.8
      vertex 11.8 30.9 1.5
    endloop
  endfacet
  facet normal -1 -0 0
    outer loop
      vertex 11.8 30.9 11.8
      vertex 11.8 13.3 1.5
      vertex 11.8 13.3 11.8
    endloop
  endfacet
  facet normal -0 0 1
    outer loop
      vertex 1.5 30.9 1.5
      vertex 11.8 13.3 1.5
      vertex 11.8 30.9 1.5
    endloop
  endfacet
  facet normal 0 0 1
    outer loop
      vertex 11.8 13.3 1.5
      vertex 1.5 30.9 1.5
      vertex 1.5 13.3 1.5
    endloop
  endfacet
  facet normal 0 1 -0
    outer loop
      vertex 11.8 10.3 10.3
      vertex 10.3 10.3 11.8
      vertex 11.8 10.3 11.8
    endloop
  endfacet
  facet normal 0 1 0
    outer loop
      vertex 10.3 10.3 11.8
      vertex 11.8 10.3 10.3
      vertex 10.3 10.3 10.3
    endloop
  endfacet
  facet normal 0 -1 0
    outer loop
      vertex 0 7.62939e-07 13.3
      vertex 13.3 7.62939e-07 30.9
      vertex 0 7.62939e-07 30.9
    endloop
  endfacet
  facet normal 0 -1 -0
    outer loop
      vertex 13.3 7.62939e-07 30.9
      vertex 0 7.62939e-07 13.3
      vertex 13.3 7.62939e-07 13.3
    endloop
  endfacet
  facet normal 0 0 1
    outer loop
      vertex 13.3 13.3 30.9
      vertex 11.8 11.8 30.9
      vertex 13.3 7.62939e-07 30.9
    endloop
  endfacet
  facet normal 0 0 1
    outer loop
      vertex 13.3 13.3 30.9
      vertex 1.5 11.8 30.9
      vertex 11.8 11.8 30.9
    endloop
  endfacet
  facet normal 0 0 1
    outer loop
      vertex 1.5 11.8 30.9
      vertex 0 13.3 30.9
      vertex 1.5 1.5 30.9
    endloop
  endfacet
  facet normal -0 0 1
    outer loop
      vertex 0 13.3 30.9
      vertex 1.5 11.8 30.9
      vertex 13.3 13.3 30.9
    endloop
  endfacet
  facet normal -0 0 1
    outer loop
      vertex 11.8 1.5 30.9
      vertex 13.3 7.62939e-07 30.9
      vertex 11.8 11.8 30.9
    endloop
  endfacet
  facet normal -0 0 1
    outer loop
      vertex 1.5 1.5 30.9
      vertex 13.3 7.62939e-07 30.9
      vertex 11.8 1.5 30.9
    endloop
  endfacet
  facet normal 0 0 1
    outer loop
      vertex 1.5 1.5 30.9
      vertex 0 7.62939e-07 30.9
      vertex 13.3 7.62939e-07 30.9
    endloop
  endfacet
  facet normal 0 0 1
    outer loop
      vertex 0 7.62939e-07 30.9
      vertex 1.5 1.5 30.9
      vertex 0 13.3 30.9
    endloop
  endfacet
  facet normal 0 1 -0
    outer loop
      vertex 13.3 13.3 13.3
      vertex 0 13.3 30.9
      vertex 13.3 13.3 30.9
    endloop
  endfacet
  facet normal 0 1 0
    outer loop
      vertex 0 13.3 30.9
      vertex 13.3 13.3 13.3
      vertex 0 13.3 13.3
    endloop
  endfacet
  facet normal 0 1 0
    outer loop
      vertex 11.8 13.3 11.8
      vertex 1.5 13.3 1.5
      vertex 1.5 13.3 11.8
    endloop
  endfacet
  facet normal 0 1 -0
    outer loop
      vertex 11.8 1.5 13.3
      vertex 1.5 1.5 30.9
      vertex 11.8 1.5 30.9
    endloop
  endfacet
  facet normal 0 1 0
    outer loop
      vertex 1.5 1.5 30.9
      vertex 11.8 1.5 13.3
      vertex 1.5 1.5 13.3
    endloop
  endfacet
  facet normal 0 -1 0
    outer loop
      vertex 11.8 11.8 10.3
      vertex 11.8 11.8 11.8
      vertex 10.3 11.8 10.3
    endloop
  endfacet
  facet normal 0 -1 0
    outer loop
      vertex 1.5 11.8 13.3
      vertex 11.8 11.8 30.9
      vertex 1.5 11.8 30.9
    endloop
  endfacet
  facet normal 0 -1 -0
    outer loop
      vertex 11.8 11.8 30.9
      vertex 1.5 11.8 13.3
      vertex 11.8 11.8 13.3
    endloop
  endfacet
  facet normal -0 0 1
    outer loop
      vertex 10.3 11.8 10.3
      vertex 11.8 10.3 10.3
      vertex 11.8 11.8 10.3
    endloop
  endfacet
  facet normal 0 0 1
    outer loop
      vertex 11.8 10.3 10.3
      vertex 10.3 11.8 10.3
      vertex 10.3 10.3 10.3
    endloop
  endfacet
  facet normal 0 1 -0
    outer loop
      vertex 30.9 13.3 0
      vertex 13.3 13.3 13.3
      vertex 30.9 13.3 13.3
    endloop
  endfacet
  facet normal 0 1 0
    outer loop
      vertex 13.3 13.3 13.3
      vertex 30.9 13.3 0
      vertex 13.3 13.3 0
    endloop
  endfacet
  facet normal 0 1 -0
    outer loop
      vertex 11.8 13.3 1.5
      vertex 1.5 13.3 1.5
      vertex 11.8 13.3 11.8
    endloop
  endfacet
  facet normal 0 -1 0
    outer loop
      vertex 13.3 7.62939e-07 0
      vertex 30.9 7.62939e-07 13.3
      vertex 13.3 7.62939e-07 13.3
    endloop
  endfacet
  facet normal 0 -1 -0
    outer loop
      vertex 30.9 7.62939e-07 13.3
      vertex 13.3 7.62939e-07 0
      vertex 30.9 7.62939e-07 0
    endloop
  endfacet
  facet normal 1 0 0
    outer loop
      vertex 30.9 13.3 13.3
      vertex 30.9 11.8 11.8
      vertex 30.9 13.3 0
    endloop
  endfacet
  facet normal 1 0 0
    outer loop
      vertex 30.9 13.3 13.3
      vertex 30.9 1.5 11.8
      vertex 30.9 11.8 11.8
    endloop
  endfacet
  facet normal 1 0 0
    outer loop
      vertex 30.9 1.5 11.8
      vertex 30.9 7.62939e-07 13.3
      vertex 30.9 1.5 1.5
    endloop
  endfacet
  facet normal 1 -0 0
    outer loop
      vertex 30.9 7.62939e-07 13.3
      vertex 30.9 1.5 11.8
      vertex 30.9 13.3 13.3
    endloop
  endfacet
  facet normal 1 -0 0
    outer loop
      vertex 30.9 11.8 1.5
      vertex 30.9 13.3 0
      vertex 30.9 11.8 11.8
    endloop
  endfacet
  facet normal 1 -0 0
    outer loop
      vertex 30.9 1.5 1.5
      vertex 30.9 13.3 0
      vertex 30.9 11.8 1.5
    endloop
  endfacet
  facet normal 1 0 0
    outer loop
      vertex 30.9 1.5 1.5
      vertex 30.9 7.62939e-07 0
      vertex 30.9 13.3 0
    endloop
  endfacet
  facet normal 1 0 0
    outer loop
      vertex 30.9 7.62939e-07 0
      vertex 30.9 1.5 1.5
      vertex 30.9 7.62939e-07 13.3
    endloop
  endfacet
  facet normal -0 -1 0
    outer loop
      vertex 11.8 11.8 11.8
      vertex 10.3 11.8 11.8
      vertex 10.3 11.8 10.3
    endloop
  endfacet
  facet normal 0 -1 0
    outer loop
      vertex 13.3 11.8 1.5
      vertex 30.9 11.8 11.8
      vertex 13.3 11.8 11.8
    endloop
  endfacet
  facet normal 0 -1 -0
    outer loop
      vertex 30.9 11.8 11.8
      vertex 13.3 11.8 1.5
      vertex 30.9 11.8 1.5
    endloop
  endfacet
  facet normal 0 1 -0
    outer loop
      vertex 30.9 1.5 1.5
      vertex 13.3 1.5 11.8
      vertex 30.9 1.5 11.8
    endloop
  endfacet
  facet normal 0 1 0
    outer loop
      vertex 13.3 1.5 11.8
      vertex 30.9 1.5 1.5
      vertex 13.3 1.5 1.5
    endloop
  endfacet
  facet normal -0 0 1
    outer loop
      vertex 13.3 11.8 1.5
      vertex 30.9 1.5 1.5
      vertex 30.9 11.8 1.5
    endloop
  endfacet
  facet normal 0 0 1
    outer loop
      vertex 30.9 1.5 1.5
      vertex 13.3 11.8 1.5
      vertex 13.3 1.5 1.5
    endloop
  endfacet
  facet normal 1 -0 0
    outer loop
      vertex 10.3 10.3 11.8
      vertex 10.3 11.8 10.3
      vertex 10.3 11.8 11.8
    endloop
  endfacet
  facet normal 1 0 0
    outer loop
      vertex 10.3 11.8 10.3
      vertex 10.3 10.3 11.8
      vertex 10.3 10.3 10.3
    endloop
  endfacet
endsolid OpenSCAD_Model
